<mxfile host="app.diagrams.net" modified="2021-06-28T11:39:15.225Z" agent="5.0 (Macintosh; Intel Mac OS X 10_15_7) AppleWebKit/537.36 (KHTML, like Gecko) Chrome/91.0.4472.114 Safari/537.36" etag="vgLxjNsm_yMDDTYIeZO9" version="14.8.1" type="github" pages="2">
  <diagram name="Page-1" id="58cdce13-f638-feb5-8d6f-7d28b1aa9fa0">
    <mxGraphModel dx="1179" dy="682" grid="1" gridSize="10" guides="1" tooltips="1" connect="1" arrows="1" fold="1" page="1" pageScale="10" pageWidth="1100" pageHeight="850" background="none" math="0" shadow="0">
      <root>
        <mxCell id="0" />
        <mxCell id="1" parent="0" />
        <mxCell id="382b91b5511bd0f7-5" value="Closed" style="rounded=1;whiteSpace=wrap;html=1;arcSize=24;fillColor=#ffffc0;strokeColor=#ff0000;shadow=0;comic=0;labelBackgroundColor=none;fontFamily=Verdana;fontSize=12;fontColor=#000000;align=center;" parent="1" vertex="1">
          <mxGeometry x="739" y="550" width="120" height="60" as="geometry" />
        </mxCell>
        <mxCell id="-EovNUwoyV8_wEbff08Q-4" style="edgeStyle=orthogonalEdgeStyle;rounded=0;orthogonalLoop=1;jettySize=auto;html=1;entryX=0.5;entryY=0;entryDx=0;entryDy=0;" edge="1" parent="1" source="382b91b5511bd0f7-6" target="382b91b5511bd0f7-7">
          <mxGeometry relative="1" as="geometry" />
        </mxCell>
        <mxCell id="-EovNUwoyV8_wEbff08Q-7" style="edgeStyle=orthogonalEdgeStyle;rounded=0;orthogonalLoop=1;jettySize=auto;html=1;entryX=0.5;entryY=0;entryDx=0;entryDy=0;" edge="1" parent="1" source="382b91b5511bd0f7-6" target="382b91b5511bd0f7-5">
          <mxGeometry relative="1" as="geometry" />
        </mxCell>
        <mxCell id="382b91b5511bd0f7-6" value="Opened" style="rounded=1;whiteSpace=wrap;html=1;arcSize=24;fillColor=#ffffc0;strokeColor=#ff0000;shadow=0;comic=0;labelBackgroundColor=none;fontFamily=Verdana;fontSize=12;fontColor=#000000;align=center;" parent="1" vertex="1">
          <mxGeometry x="739" y="360" width="120" height="60" as="geometry" />
        </mxCell>
        <mxCell id="-EovNUwoyV8_wEbff08Q-6" style="edgeStyle=orthogonalEdgeStyle;rounded=0;orthogonalLoop=1;jettySize=auto;html=1;exitX=0.5;exitY=1;exitDx=0;exitDy=0;entryX=1;entryY=0.5;entryDx=0;entryDy=0;" edge="1" parent="1" source="382b91b5511bd0f7-7" target="382b91b5511bd0f7-5">
          <mxGeometry relative="1" as="geometry" />
        </mxCell>
        <mxCell id="382b91b5511bd0f7-7" value="Partially Filled" style="rounded=1;whiteSpace=wrap;html=1;arcSize=24;fillColor=#ffffc0;strokeColor=#ff0000;shadow=0;comic=0;labelBackgroundColor=none;fontFamily=Verdana;fontSize=12;fontColor=#000000;align=center;" parent="1" vertex="1">
          <mxGeometry x="879" y="450" width="120" height="60" as="geometry" />
        </mxCell>
        <mxCell id="-EovNUwoyV8_wEbff08Q-9" value="Auction" style="swimlane;" vertex="1" parent="1">
          <mxGeometry x="699" y="300" width="320" height="330" as="geometry" />
        </mxCell>
        <mxCell id="-EovNUwoyV8_wEbff08Q-22" value="Risk Manager V1" style="swimlane;" vertex="1" parent="1">
          <mxGeometry x="270" y="300" width="159" height="335" as="geometry" />
        </mxCell>
        <mxCell id="-EovNUwoyV8_wEbff08Q-26" value="&lt;font style=&quot;font-size: 13px&quot;&gt;notifyLiquidation()&lt;/font&gt;" style="html=1;verticalAlign=bottom;startArrow=oval;startFill=1;endArrow=block;startSize=8;entryX=0;entryY=0.5;entryDx=0;entryDy=0;" edge="1" parent="-EovNUwoyV8_wEbff08Q-22" target="-EovNUwoyV8_wEbff08Q-29">
          <mxGeometry x="-0.0596" y="11" width="60" relative="1" as="geometry">
            <mxPoint x="159" y="95" as="sourcePoint" />
            <mxPoint x="393" y="94.5" as="targetPoint" />
            <mxPoint as="offset" />
          </mxGeometry>
        </mxCell>
        <mxCell id="-EovNUwoyV8_wEbff08Q-35" value="&lt;font style=&quot;font-size: 13px&quot;&gt;notifyLiquidated()&lt;/font&gt;" style="html=1;verticalAlign=bottom;startArrow=oval;startFill=1;endArrow=block;startSize=8;entryX=0;entryY=0.5;entryDx=0;entryDy=0;" edge="1" parent="-EovNUwoyV8_wEbff08Q-22" target="-EovNUwoyV8_wEbff08Q-33">
          <mxGeometry x="-0.0596" y="11" width="60" relative="1" as="geometry">
            <mxPoint x="159" y="282" as="sourcePoint" />
            <mxPoint x="401" y="282" as="targetPoint" />
            <mxPoint as="offset" />
          </mxGeometry>
        </mxCell>
        <mxCell id="-EovNUwoyV8_wEbff08Q-31" value="yes" style="edgeStyle=orthogonalEdgeStyle;html=1;align=left;verticalAlign=top;endArrow=open;endSize=8;strokeColor=#ff0000;" edge="1" source="-EovNUwoyV8_wEbff08Q-29" parent="1">
          <mxGeometry x="-1" relative="1" as="geometry">
            <mxPoint x="739" y="395" as="targetPoint" />
          </mxGeometry>
        </mxCell>
        <mxCell id="-EovNUwoyV8_wEbff08Q-29" value="Deposit &lt;br&gt;conditions&lt;br&gt;satisfied" style="rhombus;whiteSpace=wrap;html=1;fillColor=#ffffc0;strokeColor=#ff0000;" vertex="1" parent="1">
          <mxGeometry x="573" y="351" width="120" height="88" as="geometry" />
        </mxCell>
        <mxCell id="-EovNUwoyV8_wEbff08Q-32" value="yes" style="edgeStyle=orthogonalEdgeStyle;html=1;align=left;verticalAlign=top;endArrow=open;endSize=8;strokeColor=#ff0000;" edge="1" parent="1" source="-EovNUwoyV8_wEbff08Q-33">
          <mxGeometry x="-1" relative="1" as="geometry">
            <mxPoint x="740" y="582" as="targetPoint" />
          </mxGeometry>
        </mxCell>
        <mxCell id="-EovNUwoyV8_wEbff08Q-33" value="Conditions&lt;br&gt;satisfied" style="rhombus;whiteSpace=wrap;html=1;fillColor=#ffffc0;strokeColor=#ff0000;" vertex="1" parent="1">
          <mxGeometry x="574" y="555" width="120" height="55" as="geometry" />
        </mxCell>
        <mxCell id="-EovNUwoyV8_wEbff08Q-36" value="bidder" style="shape=umlActor;verticalLabelPosition=bottom;verticalAlign=top;html=1;" vertex="1" parent="1">
          <mxGeometry x="1354" y="535" width="30" height="60" as="geometry" />
        </mxCell>
        <mxCell id="-EovNUwoyV8_wEbff08Q-38" value="&lt;font style=&quot;font-size: 13px&quot;&gt;takeOffer(TBTC)&lt;/font&gt;" style="html=1;verticalAlign=bottom;startArrow=oval;startFill=1;endArrow=block;startSize=8;" edge="1" parent="1">
          <mxGeometry y="-14" width="60" relative="1" as="geometry">
            <mxPoint x="1309" y="575.5" as="sourcePoint" />
            <mxPoint x="1019" y="575" as="targetPoint" />
            <mxPoint as="offset" />
          </mxGeometry>
        </mxCell>
        <mxCell id="-EovNUwoyV8_wEbff08Q-39" value="AssetPool" style="swimlane;" vertex="1" parent="1">
          <mxGeometry x="1269" y="795" width="200" height="200" as="geometry" />
        </mxCell>
        <mxCell id="-EovNUwoyV8_wEbff08Q-40" value="&lt;font style=&quot;font-size: 13px&quot;&gt;transfer(collateralToken)&lt;/font&gt;" style="html=1;verticalAlign=bottom;startArrow=oval;startFill=1;endArrow=block;startSize=8;exitX=0.5;exitY=0;exitDx=0;exitDy=0;" edge="1" parent="1" source="-EovNUwoyV8_wEbff08Q-39">
          <mxGeometry y="14" width="60" relative="1" as="geometry">
            <mxPoint x="1144" y="695" as="sourcePoint" />
            <mxPoint x="1369" y="645" as="targetPoint" />
            <mxPoint as="offset" />
          </mxGeometry>
        </mxCell>
        <mxCell id="-EovNUwoyV8_wEbff08Q-41" value="offerTaken(portion)" style="html=1;verticalAlign=bottom;startArrow=oval;startFill=1;endArrow=block;startSize=8;" edge="1" parent="1">
          <mxGeometry width="60" relative="1" as="geometry">
            <mxPoint x="699" y="485" as="sourcePoint" />
            <mxPoint x="429" y="485" as="targetPoint" />
          </mxGeometry>
        </mxCell>
        <mxCell id="-EovNUwoyV8_wEbff08Q-42" value="seizeFunds(portion)" style="html=1;verticalAlign=bottom;startArrow=oval;startFill=1;endArrow=block;startSize=8;edgeStyle=orthogonalEdgeStyle;elbow=vertical;" edge="1" parent="1">
          <mxGeometry width="60" relative="1" as="geometry">
            <mxPoint x="339" y="635" as="sourcePoint" />
            <mxPoint x="459" y="855" as="targetPoint" />
            <Array as="points">
              <mxPoint x="339" y="855" />
            </Array>
          </mxGeometry>
        </mxCell>
        <mxCell id="-EovNUwoyV8_wEbff08Q-48" value="CoveragePool" style="swimlane;" vertex="1" parent="1">
          <mxGeometry x="459" y="735" width="200" height="200" as="geometry" />
        </mxCell>
        <mxCell id="-EovNUwoyV8_wEbff08Q-49" value="&lt;font style=&quot;font-size: 13px&quot;&gt;claim(amount)&lt;/font&gt;" style="html=1;verticalAlign=bottom;startArrow=oval;startFill=1;endArrow=block;startSize=8;" edge="1" parent="1">
          <mxGeometry y="20" width="60" relative="1" as="geometry">
            <mxPoint x="659" y="855" as="sourcePoint" />
            <mxPoint x="1269" y="855" as="targetPoint" />
            <mxPoint as="offset" />
          </mxGeometry>
        </mxCell>
        <mxCell id="-EovNUwoyV8_wEbff08Q-52" value="AuctionBidder" style="swimlane;" vertex="1" parent="1">
          <mxGeometry x="1259" y="300" width="170" height="136" as="geometry" />
        </mxCell>
        <mxCell id="-EovNUwoyV8_wEbff08Q-55" value="&lt;font style=&quot;font-size: 13px&quot;&gt;takeOffer(TBTC)&lt;/font&gt;" style="html=1;verticalAlign=bottom;startArrow=oval;startFill=1;endArrow=block;startSize=8;" edge="1" parent="1">
          <mxGeometry y="-14" width="60" relative="1" as="geometry">
            <mxPoint x="1259" y="411" as="sourcePoint" />
            <mxPoint x="1019" y="411" as="targetPoint" />
            <mxPoint as="offset" />
          </mxGeometry>
        </mxCell>
        <mxCell id="-EovNUwoyV8_wEbff08Q-56" value="&lt;font style=&quot;font-size: 13px&quot;&gt;takeOfferWithMin(TBTC, minCollTokens)&lt;/font&gt;" style="html=1;verticalAlign=bottom;startArrow=oval;startFill=1;endArrow=block;startSize=8;" edge="1" parent="1">
          <mxGeometry y="14" width="60" relative="1" as="geometry">
            <mxPoint x="1368.5" y="513" as="sourcePoint" />
            <mxPoint x="1368.5" y="436" as="targetPoint" />
            <mxPoint as="offset" />
          </mxGeometry>
        </mxCell>
        <mxCell id="-EovNUwoyV8_wEbff08Q-57" value="bidder" style="shape=umlActor;verticalLabelPosition=bottom;verticalAlign=top;html=1;" vertex="1" parent="1">
          <mxGeometry x="1364" y="545" width="30" height="60" as="geometry" />
        </mxCell>
        <mxCell id="-EovNUwoyV8_wEbff08Q-58" value="bidder" style="shape=umlActor;verticalLabelPosition=bottom;verticalAlign=top;html=1;" vertex="1" parent="1">
          <mxGeometry x="1374" y="555" width="30" height="60" as="geometry" />
        </mxCell>
        <mxCell id="-EovNUwoyV8_wEbff08Q-59" value="&lt;font style=&quot;font-size: 13px&quot;&gt;Underwriter&lt;/font&gt;" style="shape=umlActor;verticalLabelPosition=bottom;verticalAlign=top;html=1;" vertex="1" parent="1">
          <mxGeometry x="1344" y="1125" width="35" height="70" as="geometry" />
        </mxCell>
        <mxCell id="-EovNUwoyV8_wEbff08Q-63" value="&lt;font style=&quot;font-size: 13px&quot;&gt;Underwriter&lt;/font&gt;" style="shape=umlActor;verticalLabelPosition=bottom;verticalAlign=top;html=1;" vertex="1" parent="1">
          <mxGeometry x="1354" y="1135" width="35" height="70" as="geometry" />
        </mxCell>
        <mxCell id="-EovNUwoyV8_wEbff08Q-64" value="&lt;font style=&quot;font-size: 13px&quot;&gt;Underwriter&lt;/font&gt;" style="shape=umlActor;verticalLabelPosition=bottom;verticalAlign=top;html=1;" vertex="1" parent="1">
          <mxGeometry x="1364" y="1145" width="35" height="70" as="geometry" />
        </mxCell>
        <mxCell id="-EovNUwoyV8_wEbff08Q-65" value="&lt;font style=&quot;font-size: 13px&quot;&gt;mint(underwriterTokens)&lt;/font&gt;" style="html=1;verticalAlign=bottom;startArrow=oval;startFill=1;endArrow=block;startSize=8;" edge="1" parent="1">
          <mxGeometry y="20" width="60" relative="1" as="geometry">
            <mxPoint x="1409" y="995" as="sourcePoint" />
            <mxPoint x="1409" y="1125" as="targetPoint" />
            <mxPoint as="offset" />
          </mxGeometry>
        </mxCell>
        <mxCell id="-EovNUwoyV8_wEbff08Q-66" value="&lt;font style=&quot;font-size: 13px&quot;&gt;deposit(collateralTokens)&lt;/font&gt;" style="html=1;verticalAlign=bottom;startArrow=oval;startFill=1;endArrow=block;startSize=8;" edge="1" parent="1">
          <mxGeometry x="-0.4545" y="18" width="60" relative="1" as="geometry">
            <mxPoint x="1307" y="1115" as="sourcePoint" />
            <mxPoint x="1307" y="995" as="targetPoint" />
            <mxPoint as="offset" />
          </mxGeometry>
        </mxCell>
        <mxCell id="-EovNUwoyV8_wEbff08Q-67" value="RewardsPool" style="swimlane;" vertex="1" parent="1">
          <mxGeometry x="1589" y="795" width="200" height="200" as="geometry" />
        </mxCell>
        <mxCell id="-EovNUwoyV8_wEbff08Q-68" value="&lt;font style=&quot;font-size: 13px&quot;&gt;withdraw()&lt;/font&gt;" style="html=1;verticalAlign=bottom;startArrow=oval;startFill=1;endArrow=block;startSize=8;" edge="1" parent="1">
          <mxGeometry width="60" relative="1" as="geometry">
            <mxPoint x="1589" y="885" as="sourcePoint" />
            <mxPoint x="1469" y="885" as="targetPoint" />
          </mxGeometry>
        </mxCell>
        <mxCell id="-EovNUwoyV8_wEbff08Q-69" value="Actor" style="shape=umlActor;verticalLabelPosition=bottom;verticalAlign=top;html=1;" vertex="1" parent="1">
          <mxGeometry x="1674" y="1085" width="30" height="60" as="geometry" />
        </mxCell>
        <mxCell id="-EovNUwoyV8_wEbff08Q-71" value="&lt;font style=&quot;font-size: 13px&quot;&gt;topUpRewards(rewards)&lt;/font&gt;" style="html=1;verticalAlign=bottom;startArrow=oval;startFill=1;endArrow=block;startSize=8;" edge="1" parent="1">
          <mxGeometry y="20" width="60" relative="1" as="geometry">
            <mxPoint x="1689" y="1065" as="sourcePoint" />
            <mxPoint x="1689" y="995" as="targetPoint" />
            <mxPoint as="offset" />
          </mxGeometry>
        </mxCell>
        <mxCell id="-EovNUwoyV8_wEbff08Q-73" value="tBTC Deposit&lt;br&gt;under liquidation&lt;br&gt;with collateral bonds (ETH)" style="ellipse;whiteSpace=wrap;html=1;" vertex="1" parent="1">
          <mxGeometry x="262" y="80" width="167" height="100" as="geometry" />
        </mxCell>
        <mxCell id="-EovNUwoyV8_wEbff08Q-74" value="&lt;font style=&quot;font-size: 13px&quot;&gt;liquidateDeposit()&lt;br&gt;purchase deposit when auction is closed&lt;br&gt;and withdraw ETH bonds&lt;/font&gt;" style="html=1;verticalAlign=bottom;startArrow=oval;startFill=1;endArrow=block;startSize=8;" edge="1" parent="1">
          <mxGeometry x="-0.3445" width="60" relative="1" as="geometry">
            <mxPoint x="340" y="299" as="sourcePoint" />
            <mxPoint x="340" y="180" as="targetPoint" />
            <mxPoint as="offset" />
          </mxGeometry>
        </mxCell>
        <mxCell id="-EovNUwoyV8_wEbff08Q-75" value="&lt;font style=&quot;font-size: 13px&quot;&gt;deposit.withdrawFund()&lt;/font&gt;" style="html=1;verticalAlign=bottom;startArrow=oval;startFill=1;endArrow=block;startSize=8;edgeStyle=orthogonalEdgeStyle;" edge="1" parent="1">
          <mxGeometry x="0.3" width="60" relative="1" as="geometry">
            <mxPoint x="260" y="130" as="sourcePoint" />
            <mxPoint x="270" y="400" as="targetPoint" />
            <mxPoint as="offset" />
            <Array as="points">
              <mxPoint x="260" y="160" />
              <mxPoint x="200" y="160" />
            </Array>
          </mxGeometry>
        </mxCell>
        <mxCell id="-EovNUwoyV8_wEbff08Q-76" value="SignerBondsUniswapV2" style="swimlane;" vertex="1" parent="1">
          <mxGeometry x="270" y="1060" width="200" height="170" as="geometry" />
        </mxCell>
        <mxCell id="-EovNUwoyV8_wEbff08Q-77" value="&lt;font style=&quot;font-size: 13px&quot;&gt;swapSignerBondsOnUniswapV2()&lt;/font&gt;" style="html=1;verticalAlign=bottom;startArrow=oval;startFill=1;endArrow=block;startSize=8;edgeStyle=orthogonalEdgeStyle;" edge="1" parent="1">
          <mxGeometry width="60" relative="1" as="geometry">
            <mxPoint x="270" y="600" as="sourcePoint" />
            <mxPoint x="270" y="1140" as="targetPoint" />
            <Array as="points">
              <mxPoint x="200" y="600" />
              <mxPoint x="200" y="1140" />
            </Array>
          </mxGeometry>
        </mxCell>
        <mxCell id="-EovNUwoyV8_wEbff08Q-78" value="UniswapV2&lt;br&gt;Exchange" style="ellipse;whiteSpace=wrap;html=1;" vertex="1" parent="1">
          <mxGeometry x="620" y="1100" width="150" height="80" as="geometry" />
        </mxCell>
        <mxCell id="-EovNUwoyV8_wEbff08Q-79" value="ETH" style="html=1;verticalAlign=bottom;startArrow=oval;startFill=1;endArrow=block;startSize=8;" edge="1" parent="1">
          <mxGeometry width="60" relative="1" as="geometry">
            <mxPoint x="470" y="1169.5" as="sourcePoint" />
            <mxPoint x="600" y="1170" as="targetPoint" />
          </mxGeometry>
        </mxCell>
        <mxCell id="-EovNUwoyV8_wEbff08Q-80" value="Collateral Tokens" style="html=1;verticalAlign=bottom;startArrow=oval;startFill=1;endArrow=block;startSize=8;" edge="1" parent="1">
          <mxGeometry width="60" relative="1" as="geometry">
            <mxPoint x="600" y="1120" as="sourcePoint" />
            <mxPoint x="470" y="1120" as="targetPoint" />
          </mxGeometry>
        </mxCell>
      </root>
    </mxGraphModel>
  </diagram>
  <diagram id="F3djwvzcu8zyHFJqJr6l" name="Page-2">
    <mxGraphModel dx="1186" dy="739" grid="1" gridSize="10" guides="1" tooltips="1" connect="1" arrows="1" fold="1" page="1" pageScale="1" pageWidth="827" pageHeight="1169" math="0" shadow="0">
      <root>
        <mxCell id="XEE9SQxzqbPDaQtaIADr-0" />
        <mxCell id="XEE9SQxzqbPDaQtaIADr-1" parent="XEE9SQxzqbPDaQtaIADr-0" />
      </root>
    </mxGraphModel>
  </diagram>
</mxfile>
